<?xml version="1.0" encoding="utf-8"?>
<!-- Generator: Adobe Illustrator 21.1.0, SVG Export Plug-In . SVG Version: 6.00 Build 0)  -->
<svg version="1.1" id="Layer_1" xmlns="http://www.w3.org/2000/svg" xmlns:xlink="http://www.w3.org/1999/xlink" x="0px" y="0px"
	 viewBox="0 0 681 391" style="enable-background:new 0 0 681 391;" xml:space="preserve">
<style type="text/css">
	.st0{fill:#449FD6;}
	.st1{fill:none;stroke:#449fd626;stroke-width:14;stroke-linejoin:round;stroke-miterlimit:10;}
	.st2{fill:#449fd626;}
</style>
<g id="Cloud_Client">
	<g>
		<path class="st2" d="M84.6,314.5c-4.7-2.9-8.5-7.1-11.3-12c-2.9-5.2-4.3-10.8-4.3-16.8c0-5.8,1.5-11.5,4.1-16.5c2.7-5,6.5-9.2,11.1-12.3
			c4.7-3.1,10.3-4.8,16.3-4.8c8.3,0,16.3,3.4,22.4,9.9c0.9,1,1.4,2.1,1.4,3.5s-0.4,2.6-1.4,3.6s-2.1,1.5-3.4,1.5
			c-1.4,0-2.5-0.5-3.4-1.4c-4.3-4.6-9.7-6.8-15.6-6.8s-11.3,2.5-15.3,6.7c-4,4.3-6.4,10.1-6.4,16.4c0,6.2,2.2,12,6.2,16.3
			c3.9,4.4,9.4,7,15.4,7c6.1,0,11.3-2.3,15.7-6.7c1-0.9,2.1-1.4,3.4-1.4s2.4,0.5,3.3,1.3c0.9,1,1.4,2.2,1.4,3.6s-0.4,2.6-1.3,3.6
			c-6.3,6.5-14.2,9.8-22.5,9.8C94.7,319.1,89.5,317.6,84.6,314.5z"/>
		<path class="st2" d="M131.3,313.4v-55.8c0-2.9,2.1-5,4.9-5s4.8,2.2,4.8,5v55.8c0,2.9-2.1,5-4.8,5S131.3,316.3,131.3,313.4z"/>
		<path class="st2" d="M154.8,311.9c-4.3-4.6-6.8-10.7-6.8-17.4s2.5-12.8,6.8-17.4c4.3-4.5,10.1-7.2,16.3-7.2c6.3,0,12.1,2.7,16.3,7.2
			c4.3,4.6,6.7,10.7,6.7,17.4s-2.5,12.8-6.7,17.4c-4.3,4.5-10.1,7.2-16.3,7.2C164.8,319.1,159,316.4,154.8,311.9z M180.7,304.6
			c2.5-2.6,3.9-6.2,3.9-10c0-3.9-1.4-7.5-3.9-10.1s-5.9-4.1-9.6-4.1c-3.6,0-7,1.5-9.5,4.1c-2.5,2.7-4,6.2-4,10.1s1.5,7.4,4,10
			s5.8,4.2,9.5,4.2C174.8,308.8,178.2,307.2,180.7,304.6z"/>
		<path class="st2" d="M232,313.4v-0.7c-3.6,3.7-7.9,5.8-12.4,5.8c-5.6,0-10.3-2.5-13.7-6.8s-5.2-10.3-5.2-17.1V275c0-2.9,2.1-5,4.9-5
			c2.7,0,4.8,2.2,4.8,5v19.8c0,4.1,0.9,7.4,2.8,9.8c1.8,2.4,4.4,3.8,7.6,3.8c3.3,0,6-1.3,8.1-3.8s3.2-5.7,3.2-9.5v-19.9
			c0-2.9,2.1-5.1,4.8-5.1c1.3,0,2.6,0.6,3.4,1.4c0.9,1,1.4,2.2,1.4,3.7v38.3c0,1.4-0.5,2.6-1.5,3.6s-2.2,1.5-3.5,1.5
			C234,318.6,232,316.3,232,313.4z"/>
		<path class="st2" d="M255.3,311.8c-4.3-4.5-6.8-10.7-6.8-17.3c0-6.7,2.5-12.9,6.8-17.4s10.1-7.2,16.3-7.2c4.9,0,9.4,1.5,13.4,4.6v-16.9
			c0-2.9,2.1-5,4.8-5s4.9,2.2,4.9,5v55.8c0,2.9-2.1,5-4.9,5c-2.4,0-4.3-1.7-4.8-4.1c-3.9,3-8.6,4.7-13.5,4.7
			C265.5,319.1,259.6,316.4,255.3,311.8z M281,304.8c2.5-2.5,3.9-5.9,4.1-9.6V294c-0.1-3.8-1.6-7.2-4.1-9.7
			c-2.4-2.5-5.7-3.9-9.4-3.9s-7,1.5-9.5,4.1c-2.5,2.7-4,6.2-4,10.1s1.5,7.4,4,10s5.8,4.2,9.5,4.2S278.6,307.3,281,304.8z"/>
		<path class="st2" d="M339.1,314.5c-4.7-2.9-8.5-7.1-11.3-12c-2.9-5.2-4.3-10.8-4.3-16.8c0-5.8,1.5-11.5,4.1-16.5c2.7-5,6.5-9.2,11.1-12.3
			c4.7-3.1,10.3-4.8,16.3-4.8c8.3,0,16.3,3.4,22.4,9.9c0.9,1,1.4,2.1,1.4,3.5s-0.4,2.6-1.4,3.6s-2.1,1.5-3.4,1.5
			c-1.4,0-2.5-0.5-3.4-1.4c-4.3-4.6-9.7-6.8-15.6-6.8s-11.3,2.5-15.3,6.7c-4,4.3-6.4,10.1-6.4,16.4c0,6.2,2.2,12,6.2,16.3
			c3.9,4.4,9.4,7,15.4,7c6.1,0,11.3-2.3,15.7-6.7c1-0.9,2.1-1.4,3.4-1.4s2.4,0.5,3.3,1.3c0.9,1,1.4,2.2,1.4,3.6s-0.4,2.6-1.3,3.6
			c-6.3,6.5-14.2,9.8-22.5,9.8C349.2,319.1,343.9,317.6,339.1,314.5z"/>
		<path class="st2" d="M385.8,313.4v-55.8c0-2.9,2.1-5,4.9-5c2.7,0,4.8,2.2,4.8,5v55.8c0,2.9-2.1,5-4.8,5C387.9,318.5,385.8,316.3,385.8,313.4z"
			/>
		<path class="st2" d="M406.2,262.9c-1.1-1.1-1.6-2.5-1.6-4c0-1.6,0.5-2.9,1.6-4.1c1-1.1,2.3-1.6,3.8-1.6s2.8,0.6,3.8,1.6
			c1.1,1.1,1.6,2.5,1.6,4.1c0,1.5-0.5,2.9-1.6,4c-1,1.1-2.3,1.6-3.8,1.6S407.2,263.9,406.2,262.9z M406.7,317c-1-1-1.5-2.2-1.5-3.6
			v-38.3c0-1.5,0.5-2.7,1.5-3.7s2.1-1.5,3.4-1.5c1.4,0,2.5,0.5,3.4,1.5s1.4,2.3,1.4,3.7v38.3c0,2.9-2.1,5.1-4.8,5.1
			C408.8,318.5,407.6,318,406.7,317z"/>
		<path class="st2" d="M428.6,311.9c-4.3-4.5-6.8-10.7-6.8-17.4s2.5-12.9,6.8-17.4s10.1-7.2,16.4-7.2c6.2,0,12,2.6,16.3,7.1s6.9,10.6,6.9,17.2
			c0,2.9-2,4.9-4.8,4.9h-31c0.8,2.9,2.4,5.4,4.6,7.2c2.2,1.9,5,2.8,7.9,2.8c3.7,0,6.6-1.2,8.7-3.7c1-0.9,2.1-1.3,3.2-1.3
			c0.5,0,1.1,0.1,1.6,0.3c0.9,0.4,1.7,1.1,2.3,2.2c0.5,0.9,0.8,1.9,0.8,2.9c0,1.5-0.6,2.8-1.8,3.9c-1.7,1.7-3.6,3-5.7,3.9
			c-2.6,1.1-5.6,1.6-9.1,1.6C438.7,319.1,432.9,316.4,428.6,311.9z M458.3,290.6c-0.7-3.1-2.3-5.9-4.6-7.8c-2.4-2-5.4-3.1-8.5-3.1
			c-3.3,0-6.1,1-8.4,3.1c-2.3,2-3.9,4.7-4.5,7.8H458.3z"/>
		<path class="st2" d="M506.5,313.5v-19.8c0-4.2-1-7.5-2.8-9.9c-1.9-2.5-4.4-3.7-7.6-3.7c-3.3,0-6.1,1.3-8.1,3.8s-3.2,5.8-3.2,9.5v19.9
			c0,2.9-2.1,5.1-4.8,5.1c-1.3,0-2.5-0.5-3.4-1.5c-1-1-1.5-2.2-1.5-3.6V275c0-1.5,0.5-2.7,1.5-3.7s2.1-1.5,3.4-1.5
			c1.4,0,2.5,0.5,3.4,1.5s1.4,2.3,1.4,3.7v0.7c3.6-3.7,7.9-5.8,12.4-5.8c5.6,0,10.3,2.4,13.7,6.7c3.3,4.3,5.2,10.3,5.2,17.1v19.8
			c0,2.9-2.1,5-4.8,5C508.6,318.6,506.5,316.4,506.5,313.5z"/>
		<path class="st2" d="M529.6,313.4v-33.1h-3.5c-1.4,0-2.5-0.5-3.4-1.5c-1-1.1-1.5-2.3-1.5-3.7c0-2.9,2.1-5,4.9-5h3.5v-12.5c0-2.9,2.1-5,4.9-5
			c2.7,0,4.8,2.2,4.8,5v12.5h4.2c2.8,0,4.9,2.2,4.9,5c0,2.9-2.1,5.2-4.9,5.2h-4.2v33.1c0,2.9-2.1,5-4.8,5
			C531.7,318.5,529.6,316.3,529.6,313.4z"/>
		<path class="st2" d="M593.2,319c-0.8,0-1.6-0.2-2.5-0.7c-1.6-1-2.4-2.6-2.4-4.3c0-1,0.3-1.9,0.8-2.9l7.4-14.5c-0.8,0.1-1.5,0.1-1.8,0.1
			c-5.7,0-10.9-2.4-14.8-6.5c-3.9-4.1-6.1-9.7-6.1-15.8s2.2-11.6,6.1-15.7c3.9-4.1,9.1-6.5,14.8-6.5s10.9,2.4,14.8,6.5
			c3.9,4.1,6.2,9.7,6.2,15.7c0,4.1-1,7.9-3.1,11.6l-0.1,0.2l-15,30c-0.7,1.3-1.7,2.2-3,2.5C594,318.9,593.5,319,593.2,319z
			 M603.1,283c2.1-2.3,3.4-5.4,3.4-8.8c0-3.3-1.3-6.4-3.4-8.7c-2.2-2.3-5.1-3.6-8.2-3.6c-3.3,0-6.2,1.3-8.3,3.6
			c-2.1,2.3-3.4,5.4-3.4,8.7c0,3.5,1.3,6.5,3.4,8.8c2.1,2.3,5,3.7,8.3,3.7C598,286.7,600.9,285.3,603.1,283z"/>
	</g>
</g>
<g id="poweredBy_Núvol_9">
	<g>
		<path d="M399.5,341.1c0-1.3,0-2.4-0.1-3.3h1.7l0.1,1.7l0,0c0.8-1.2,2-2,3.6-2c2.5,0,4.3,2.1,4.3,5.2c0,3.7-2.2,5.5-4.6,5.5
			c-1.3,0-2.5-0.6-3.1-1.6l0,0v5.5h-1.8v-11H399.5z M401.4,343.8c0,0.3,0,0.5,0.1,0.8c0.3,1.3,1.4,2.2,2.8,2.2c2,0,3.1-1.6,3.1-3.9
			c0-2-1.1-3.8-3-3.8c-1.3,0-2.4,0.9-2.8,2.3c-0.1,0.2-0.1,0.5-0.1,0.8v1.6H401.4z"/>
		<path d="M420.7,342.7c0,3.8-2.6,5.4-5.1,5.4c-2.8,0-4.9-2-4.9-5.2c0-3.4,2.2-5.4,5-5.4C418.7,337.5,420.7,339.6,420.7,342.7z
			 M412.6,342.8c0,2.2,1.3,3.9,3.1,3.9c1.8,0,3.1-1.7,3.1-3.9c0-1.7-0.9-3.9-3-3.9S412.6,340.9,412.6,342.8z"/>
		<path d="M423.6,337.7l1.3,5.2c0.3,1.1,0.6,2.2,0.8,3.2h0.1c0.2-1,0.6-2.1,0.9-3.2l1.7-5.2h1.6l1.6,5.1c0.4,1.2,0.7,2.3,0.9,3.3
			h0.1c0.2-1,0.4-2.1,0.8-3.3l1.4-5.1h1.8l-3.3,10.2h-1.7L430,343c-0.4-1.1-0.7-2.1-0.9-3.3l0,0c-0.3,1.2-0.6,2.3-0.9,3.4l-1.6,4.8
			h-1.7l-3.1-10.2H423.6z"/>
		<path d="M439.1,343.2c0,2.5,1.6,3.5,3.5,3.5c1.3,0,2.1-0.2,2.8-0.5l0.3,1.3c-0.7,0.3-1.8,0.6-3.4,0.6c-3.1,0-5-2.1-5-5.1
			c0-3.1,1.8-5.5,4.8-5.5c3.3,0,4.2,2.9,4.2,4.8c0,0.4,0,0.7-0.1,0.9L439.1,343.2L439.1,343.2z M444.6,341.8c0-1.2-0.5-3-2.6-3
			c-1.9,0-2.7,1.7-2.8,3H444.6z"/>
		<path d="M448.6,340.9c0-1.2,0-2.2-0.1-3.2h1.6l0.1,2h0.1c0.5-1.4,1.6-2.2,2.8-2.2c0.2,0,0.4,0,0.5,0.1v1.7c-0.2,0-0.4-0.1-0.6-0.1
			c-1.3,0-2.2,1-2.5,2.4c0,0.3-0.1,0.5-0.1,0.9v5.4h-1.8V340.9z"/>
		<path d="M456.3,343.2c0,2.5,1.6,3.5,3.5,3.5c1.3,0,2.1-0.2,2.8-0.5l0.3,1.3c-0.7,0.3-1.8,0.6-3.4,0.6c-3.1,0-5-2.1-5-5.1
			c0-3.1,1.8-5.5,4.8-5.5c3.3,0,4.2,2.9,4.2,4.8c0,0.4,0,0.7-0.1,0.9L456.3,343.2L456.3,343.2z M461.7,341.8c0-1.2-0.5-3-2.6-3
			c-1.9,0-2.7,1.7-2.8,3H461.7z"/>
		<path d="M474.6,333v12.3c0,0.9,0,1.9,0.1,2.6H473l-0.1-1.8l0,0c-0.6,1.1-1.8,2-3.5,2c-2.5,0-4.3-2.1-4.3-5.2
			c0-3.4,2.1-5.5,4.6-5.5c1.6,0,2.6,0.7,3.1,1.6l0,0v-6H474.6z M472.7,341.9c0-0.2,0-0.5-0.1-0.8c-0.3-1.2-1.3-2.1-2.7-2.1
			c-1.9,0-3,1.7-3,3.9c0,2.1,1,3.8,3,3.8c1.2,0,2.4-0.8,2.7-2.2c0.1-0.3,0.1-0.5,0.1-0.8V341.9z"/>
		<path d="M482,347.9c0-0.7,0.1-1.7,0.1-2.6V333h1.8v6.4l0,0c0.7-1.1,1.8-1.9,3.5-1.9c2.5,0,4.3,2.1,4.3,5.2c0,3.6-2.3,5.4-4.6,5.4
			c-1.5,0-2.6-0.6-3.4-1.9h-0.1l-0.1,1.7L482,347.9L482,347.9z M483.9,343.8c0,0.2,0,0.5,0.1,0.7c0.4,1.3,1.4,2.2,2.8,2.2
			c1.9,0,3.1-1.6,3.1-3.9c0-2-1.1-3.8-3-3.8c-1.3,0-2.4,0.9-2.8,2.3c0,0.2-0.1,0.5-0.1,0.8v1.7H483.9z"/>
		<path d="M494.6,337.7l2.2,6c0.2,0.7,0.5,1.5,0.7,2.1l0,0c0.2-0.6,0.4-1.4,0.7-2.1l2-6h2l-2.8,7.2c-1.3,3.5-2.2,5.3-3.5,6.4
			c-0.9,0.8-1.8,1.1-2.3,1.2l-0.5-1.6c0.5-0.1,1.1-0.4,1.6-0.9c0.5-0.4,1.1-1.1,1.6-2.1c0.1-0.2,0.1-0.3,0.1-0.4s0-0.3-0.1-0.5
			l-3.8-9.4L494.6,337.7L494.6,337.7z"/>
		<path class="st0" d="M508.1,346.9v-11.3c0-0.6,0.5-1,1-1l0,0c0.1,0,0.1,0,0.2,0h0.1c0.1,0,0.2,0.1,0.3,0.2l0.1,0.1
			c0.1,0.1,0.1,0.2,0.2,0.3l6.2,8.7v-8.3c0-0.6,0.5-1,1.1-1c0.3,0,0.6,0.1,0.7,0.3c0.2,0.2,0.3,0.5,0.3,0.7V347c0,0.5-0.3,0.9-0.7,1
			c0,0-0.1,0-0.2,0h-0.1c-0.2,0-0.5-0.1-0.7-0.2c-0.1-0.1-0.2-0.1-0.2-0.2l-6.3-8.9v8.2c0,0.6-0.5,1-1,1S508.1,347.5,508.1,346.9z"
			/>
		<path class="st0" d="M527.1,346.9v-0.1c-0.8,0.8-1.7,1.2-2.7,1.2c-1.2,0-2.2-0.5-3-1.4s-1.1-2.1-1.1-3.5v-4c0-0.6,0.5-1,1-1
			s1,0.4,1,1v4c0,0.8,0.2,1.5,0.6,2c0.4,0.5,1,0.8,1.6,0.8c0.7,0,1.3-0.3,1.8-0.8s0.7-1.2,0.7-1.9v-4.1c0-0.6,0.5-1,1-1
			c0.3,0,0.6,0.1,0.7,0.3c0.2,0.2,0.3,0.5,0.3,0.7v7.8c0,0.3-0.1,0.5-0.3,0.7s-0.5,0.3-0.8,0.3C527.5,347.9,527.1,347.5,527.1,346.9
			z M524.3,335.9c0-0.3,0.1-0.5,0.3-0.8l1.4-1.4c0.2-0.2,0.5-0.3,0.8-0.3s0.5,0.1,0.7,0.3c0.2,0.2,0.3,0.5,0.3,0.7
			c0,0.3-0.1,0.5-0.3,0.7l-1.4,1.4c-0.2,0.2-0.5,0.3-0.7,0.3s-0.5-0.1-0.7-0.3C524.4,336.4,524.3,336.1,524.3,335.9z"/>
		<path class="st0" d="M535,347.9c-0.3,0-0.5-0.1-0.7-0.3c-0.1-0.1-0.1-0.2-0.2-0.3l-3.5-7.8c-0.1-0.1-0.1-0.3-0.1-0.4
			s0-0.3,0.1-0.4c0.1-0.3,0.3-0.5,0.6-0.6c0.1-0.1,0.3-0.1,0.4-0.1c0.3,0,0.5,0.1,0.7,0.3c0.1,0.1,0.2,0.2,0.2,0.3l2.6,5.9l2.6-5.9
			c0.1-0.3,0.3-0.5,0.6-0.6c0.1-0.1,0.2-0.1,0.4-0.1c0.3,0,0.5,0.1,0.7,0.3c0.2,0.2,0.3,0.5,0.3,0.7c0,0.1-0.1,0.3-0.1,0.4l-3.5,7.8
			c-0.1,0.3-0.3,0.4-0.5,0.5h-0.1l0,0h-0.1l0,0c-0.1,0-0.1,0-0.2,0H535V347.9z"/>
		<path class="st0" d="M541.3,346.6c-0.9-0.9-1.5-2.2-1.5-3.5s0.5-2.6,1.5-3.5c0.9-0.9,2.2-1.5,3.5-1.5s2.6,0.5,3.5,1.5
			c0.9,0.9,1.5,2.2,1.5,3.5s-0.5,2.6-1.5,3.5c-0.9,0.9-2.2,1.5-3.5,1.5S542.2,347.5,541.3,346.6z M546.9,345.1
			c0.5-0.5,0.8-1.3,0.8-2c0-0.8-0.3-1.5-0.8-2.1s-1.3-0.8-2.1-0.8s-1.5,0.3-2,0.8s-0.9,1.3-0.9,2.1c0,0.8,0.3,1.5,0.9,2
			s1.3,0.9,2,0.9C545.6,345.9,546.4,345.6,546.9,345.1z"/>
		<path class="st0" d="M551.3,346.9v-11.4c0-0.6,0.5-1,1-1s1,0.4,1,1v11.4c0,0.6-0.5,1-1,1S551.3,347.5,551.3,346.9z"/>
		<path class="st0" d="M564.1,348c-0.2,0-0.4,0-0.5-0.1c-0.3-0.2-0.5-0.5-0.5-0.9c0-0.2,0.1-0.4,0.2-0.6l1.6-3c-0.2,0-0.3,0-0.4,0
			c-1.2,0-2.4-0.5-3.2-1.3s-1.3-2-1.3-3.2s0.5-2.4,1.3-3.2s2-1.3,3.2-1.3s2.4,0.5,3.2,1.3s1.3,2,1.3,3.2c0,0.8-0.2,1.6-0.7,2.4l0,0
			l-3.2,6.1c-0.2,0.3-0.4,0.4-0.6,0.5C564.2,348,564.1,348,564.1,348z M566.2,340.7c0.5-0.5,0.7-1.1,0.7-1.8c0-0.7-0.3-1.3-0.7-1.8
			c-0.5-0.5-1.1-0.7-1.8-0.7s-1.3,0.3-1.8,0.7c-0.5,0.5-0.7,1.1-0.7,1.8c0,0.7,0.3,1.3,0.7,1.8c0.5,0.5,1.1,0.7,1.8,0.7
			C565.1,341.4,565.7,341.1,566.2,340.7z"/>
	</g>
</g>
<g id="Layer_2">
	<g id="XMLID_1_">
		<path class="st1" d="M116.5,189.5c-50,1.4-90,42.6-90,93.2c0,49.8,38.7,90.4,87.5,93.1c1.7,0.1,3.4,0.1,5.2,0.1h437
			c1.3,0,2.6,0,3.8-0.1c49.4-2,88.8-43,88.8-93.2c0-51.5-41.5-93.3-92.7-93.3c-10.9,0-21.3,1.9-31,5.4c5.1-11.4,7.8-24,7.8-37.1
			c0-53.7-46.6-97.3-104-97.3c-30.6,0-58.1,12.3-77.1,32c-20.4-42.5-64.5-72-115.6-72c-70.6,0-127.8,56.1-127.8,125.3
			C108.5,161.2,111.3,175.9,116.5,189.5z"/>
	</g>
</g>
</svg>
