<?xml version="1.0" encoding="utf-8"?>
<!-- Generator: Adobe Illustrator 23.0.1, SVG Export Plug-In . SVG Version: 6.00 Build 0)  -->
<svg version="1.1" id="Layer_1" xmlns="http://www.w3.org/2000/svg" xmlns:xlink="http://www.w3.org/1999/xlink" x="0px" y="0px"
	 viewBox="0 0 681 391" style="enable-background:new 0 0 681 391;" xml:space="preserve">
<style type="text/css">
	.st0{fill:#449FD6;}
	.st1{opacity:0.21;}
	.st2{fill:none;stroke:#4AC9FF;stroke-width:14;stroke-linejoin:round;stroke-miterlimit:10;}
	.st3{fill:#4AC9FF;stroke:#4AC9FF;stroke-miterlimit:10;}
</style>
<g id="poweredBy_Núvol_9">
	<g>
		<path d="M399.5,341.1c0-1.3,0-2.4-0.1-3.3h1.7l0.1,1.7l0,0c0.8-1.2,2-2,3.6-2c2.5,0,4.3,2.1,4.3,5.2c0,3.7-2.2,5.5-4.6,5.5
			c-1.3,0-2.5-0.6-3.1-1.6l0,0v5.5h-1.8v-11L399.5,341.1L399.5,341.1z M401.4,343.8c0,0.3,0,0.5,0.1,0.8c0.3,1.3,1.4,2.2,2.8,2.2
			c2,0,3.1-1.6,3.1-3.9c0-2-1.1-3.8-3-3.8c-1.3,0-2.4,0.9-2.8,2.3c-0.1,0.2-0.1,0.5-0.1,0.8v1.6H401.4z"/>
		<path d="M420.7,342.7c0,3.8-2.6,5.4-5.1,5.4c-2.8,0-4.9-2-4.9-5.2c0-3.4,2.2-5.4,5-5.4C418.7,337.5,420.7,339.6,420.7,342.7z
			 M412.6,342.8c0,2.2,1.3,3.9,3.1,3.9c1.8,0,3.1-1.7,3.1-3.9c0-1.7-0.9-3.9-3-3.9S412.6,340.9,412.6,342.8z"/>
		<path d="M423.6,337.7l1.3,5.2c0.3,1.1,0.6,2.2,0.8,3.2h0.1c0.2-1,0.6-2.1,0.9-3.2l1.7-5.2h1.6l1.6,5.1c0.4,1.2,0.7,2.3,0.9,3.3
			h0.1c0.2-1,0.4-2.1,0.8-3.3l1.4-5.1h1.8l-3.3,10.2h-1.7L430,343c-0.4-1.1-0.7-2.1-0.9-3.3l0,0c-0.3,1.2-0.6,2.3-0.9,3.4l-1.6,4.8
			h-1.7l-3.1-10.2L423.6,337.7L423.6,337.7z"/>
		<path d="M439.1,343.2c0,2.5,1.6,3.5,3.5,3.5c1.3,0,2.1-0.2,2.8-0.5l0.3,1.3c-0.7,0.3-1.8,0.6-3.4,0.6c-3.1,0-5-2.1-5-5.1
			c0-3.1,1.8-5.5,4.8-5.5c3.3,0,4.2,2.9,4.2,4.8c0,0.4,0,0.7-0.1,0.9L439.1,343.2L439.1,343.2z M444.6,341.8c0-1.2-0.5-3-2.6-3
			c-1.9,0-2.7,1.7-2.8,3H444.6z"/>
		<path d="M448.6,340.9c0-1.2,0-2.2-0.1-3.2h1.6l0.1,2h0.1c0.5-1.4,1.6-2.2,2.8-2.2c0.2,0,0.4,0,0.5,0.1v1.7c-0.2,0-0.4-0.1-0.6-0.1
			c-1.3,0-2.2,1-2.5,2.4c0,0.3-0.1,0.5-0.1,0.9v5.4h-1.8V340.9z"/>
		<path d="M456.3,343.2c0,2.5,1.6,3.5,3.5,3.5c1.3,0,2.1-0.2,2.8-0.5l0.3,1.3c-0.7,0.3-1.8,0.6-3.4,0.6c-3.1,0-5-2.1-5-5.1
			c0-3.1,1.8-5.5,4.8-5.5c3.3,0,4.2,2.9,4.2,4.8c0,0.4,0,0.7-0.1,0.9L456.3,343.2L456.3,343.2z M461.7,341.8c0-1.2-0.5-3-2.6-3
			c-1.9,0-2.7,1.7-2.8,3H461.7z"/>
		<path d="M474.6,333v12.3c0,0.9,0,1.9,0.1,2.6H473l-0.1-1.8l0,0c-0.6,1.1-1.8,2-3.5,2c-2.5,0-4.3-2.1-4.3-5.2
			c0-3.4,2.1-5.5,4.6-5.5c1.6,0,2.6,0.7,3.1,1.6l0,0v-6H474.6z M472.7,341.9c0-0.2,0-0.5-0.1-0.8c-0.3-1.2-1.3-2.1-2.7-2.1
			c-1.9,0-3,1.7-3,3.9c0,2.1,1,3.8,3,3.8c1.2,0,2.4-0.8,2.7-2.2c0.1-0.3,0.1-0.5,0.1-0.8V341.9z"/>
		<path d="M482,347.9c0-0.7,0.1-1.7,0.1-2.6V333h1.8v6.4l0,0c0.7-1.1,1.8-1.9,3.5-1.9c2.5,0,4.3,2.1,4.3,5.2c0,3.6-2.3,5.4-4.6,5.4
			c-1.5,0-2.6-0.6-3.4-1.9h-0.1l-0.1,1.7L482,347.9L482,347.9z M483.9,343.8c0,0.2,0,0.5,0.1,0.7c0.4,1.3,1.4,2.2,2.8,2.2
			c1.9,0,3.1-1.6,3.1-3.9c0-2-1.1-3.8-3-3.8c-1.3,0-2.4,0.9-2.8,2.3c0,0.2-0.1,0.5-0.1,0.8v1.7L483.9,343.8L483.9,343.8z"/>
		<path d="M494.6,337.7l2.2,6c0.2,0.7,0.5,1.5,0.7,2.1l0,0c0.2-0.6,0.4-1.4,0.7-2.1l2-6h2l-2.8,7.2c-1.3,3.5-2.2,5.3-3.5,6.4
			c-0.9,0.8-1.8,1.1-2.3,1.2l-0.5-1.6c0.5-0.1,1.1-0.4,1.6-0.9c0.5-0.4,1.1-1.1,1.6-2.1c0.1-0.2,0.1-0.3,0.1-0.4s0-0.3-0.1-0.5
			l-3.8-9.4L494.6,337.7L494.6,337.7z"/>
		<path class="st0" d="M508.1,346.9v-11.3c0-0.6,0.5-1,1-1l0,0c0.1,0,0.1,0,0.2,0h0.1c0.1,0,0.2,0.1,0.3,0.2l0.1,0.1
			c0.1,0.1,0.1,0.2,0.2,0.3l6.2,8.7v-8.3c0-0.6,0.5-1,1.1-1c0.3,0,0.6,0.1,0.7,0.3c0.2,0.2,0.3,0.5,0.3,0.7V347c0,0.5-0.3,0.9-0.7,1
			c0,0-0.1,0-0.2,0h-0.1c-0.2,0-0.5-0.1-0.7-0.2c-0.1-0.1-0.2-0.1-0.2-0.2l-6.3-8.9v8.2c0,0.6-0.5,1-1,1S508.1,347.5,508.1,346.9z"
			/>
		<path class="st0" d="M527.1,346.9v-0.1c-0.8,0.8-1.7,1.2-2.7,1.2c-1.2,0-2.2-0.5-3-1.4s-1.1-2.1-1.1-3.5v-4c0-0.6,0.5-1,1-1
			s1,0.4,1,1v4c0,0.8,0.2,1.5,0.6,2c0.4,0.5,1,0.8,1.6,0.8c0.7,0,1.3-0.3,1.8-0.8s0.7-1.2,0.7-1.9v-4.1c0-0.6,0.5-1,1-1
			c0.3,0,0.6,0.1,0.7,0.3c0.2,0.2,0.3,0.5,0.3,0.7v7.8c0,0.3-0.1,0.5-0.3,0.7s-0.5,0.3-0.8,0.3C527.5,347.9,527.1,347.5,527.1,346.9
			z M524.3,335.9c0-0.3,0.1-0.5,0.3-0.8l1.4-1.4c0.2-0.2,0.5-0.3,0.8-0.3s0.5,0.1,0.7,0.3c0.2,0.2,0.3,0.5,0.3,0.7
			c0,0.3-0.1,0.5-0.3,0.7l-1.4,1.4c-0.2,0.2-0.5,0.3-0.7,0.3s-0.5-0.1-0.7-0.3C524.4,336.4,524.3,336.1,524.3,335.9z"/>
		<path class="st0" d="M535,347.9c-0.3,0-0.5-0.1-0.7-0.3c-0.1-0.1-0.1-0.2-0.2-0.3l-3.5-7.8c-0.1-0.1-0.1-0.3-0.1-0.4
			s0-0.3,0.1-0.4c0.1-0.3,0.3-0.5,0.6-0.6c0.1-0.1,0.3-0.1,0.4-0.1c0.3,0,0.5,0.1,0.7,0.3c0.1,0.1,0.2,0.2,0.2,0.3l2.6,5.9l2.6-5.9
			c0.1-0.3,0.3-0.5,0.6-0.6c0.1-0.1,0.2-0.1,0.4-0.1c0.3,0,0.5,0.1,0.7,0.3c0.2,0.2,0.3,0.5,0.3,0.7c0,0.1-0.1,0.3-0.1,0.4l-3.5,7.8
			c-0.1,0.3-0.3,0.4-0.5,0.5h-0.1l0,0h-0.1l0,0c-0.1,0-0.1,0-0.2,0H535V347.9z"/>
		<path class="st0" d="M541.3,346.6c-0.9-0.9-1.5-2.2-1.5-3.5s0.5-2.6,1.5-3.5c0.9-0.9,2.2-1.5,3.5-1.5s2.6,0.5,3.5,1.5
			c0.9,0.9,1.5,2.2,1.5,3.5s-0.5,2.6-1.5,3.5c-0.9,0.9-2.2,1.5-3.5,1.5S542.2,347.5,541.3,346.6z M546.9,345.1
			c0.5-0.5,0.8-1.3,0.8-2c0-0.8-0.3-1.5-0.8-2.1s-1.3-0.8-2.1-0.8s-1.5,0.3-2,0.8s-0.9,1.3-0.9,2.1c0,0.8,0.3,1.5,0.9,2
			s1.3,0.9,2,0.9C545.6,345.9,546.4,345.6,546.9,345.1z"/>
		<path class="st0" d="M551.3,346.9v-11.4c0-0.6,0.5-1,1-1s1,0.4,1,1v11.4c0,0.6-0.5,1-1,1S551.3,347.5,551.3,346.9z"/>
		<path class="st0" d="M564.1,348c-0.2,0-0.4,0-0.5-0.1c-0.3-0.2-0.5-0.5-0.5-0.9c0-0.2,0.1-0.4,0.2-0.6l1.6-3c-0.2,0-0.3,0-0.4,0
			c-1.2,0-2.4-0.5-3.2-1.3s-1.3-2-1.3-3.2s0.5-2.4,1.3-3.2s2-1.3,3.2-1.3s2.4,0.5,3.2,1.3s1.3,2,1.3,3.2c0,0.8-0.2,1.6-0.7,2.4l0,0
			l-3.2,6.1c-0.2,0.3-0.4,0.4-0.6,0.5C564.2,348,564.1,348,564.1,348z M566.2,340.7c0.5-0.5,0.7-1.1,0.7-1.8c0-0.7-0.3-1.3-0.7-1.8
			c-0.5-0.5-1.1-0.7-1.8-0.7s-1.3,0.3-1.8,0.7c-0.5,0.5-0.7,1.1-0.7,1.8c0,0.7,0.3,1.3,0.7,1.8c0.5,0.5,1.1,0.7,1.8,0.7
			C565.1,341.4,565.7,341.1,566.2,340.7z"/>
	</g>
</g>
<g class="st1">
	<g id="XMLID_1_">
		<path class="st2" d="M116.5,189.5c-50,1.4-90,42.6-90,93.2c0,49.8,38.7,90.4,87.5,93.1c1.7,0.1,3.4,0.1,5.2,0.1h437
			c1.3,0,2.6,0,3.8-0.1c49.4-2,88.8-43,88.8-93.2c0-51.5-41.5-93.3-92.7-93.3c-10.9,0-21.3,1.9-31,5.4c5.1-11.4,7.8-24,7.8-37.1
			c0-53.7-46.6-97.3-104-97.3c-30.6,0-58.1,12.3-77.1,32c-20.4-42.5-64.5-72-115.6-72c-70.6,0-127.8,56.1-127.8,125.3
			C108.5,161.2,111.3,175.9,116.5,189.5z"/>
	</g>
</g>
<g class="st1">
	<path class="st3" d="M150.4,187.1h21.8v4.4h-16.6v13.4h15.3v4.3h-15.3v18.3h-5.2V187.1z"/>
	<path class="st3" d="M183.7,190.3c0.1,1.8-1.3,3.2-3.4,3.2c-1.9,0-3.2-1.4-3.2-3.2c0-1.9,1.4-3.3,3.3-3.3
		C182.5,187,183.7,188.5,183.7,190.3z M177.9,227.5v-29h5.3v29H177.9z"/>
	<path class="st3" d="M194.8,214c0.1,7.1,4.7,10.1,10,10.1c3.8,0,6.1-0.7,8-1.5l0.9,3.8c-1.9,0.8-5,1.8-9.7,1.8
		c-8.9,0-14.3-5.9-14.3-14.6s5.2-15.7,13.6-15.7c9.5,0,12,8.3,12,13.7c0,1.1-0.1,1.9-0.2,2.5H194.8z M210.3,210.2
		c0.1-3.4-1.4-8.6-7.3-8.6c-5.3,0-7.7,4.9-8.1,8.6H210.3z"/>
	<path class="st3" d="M222,184.9h5.3v42.6H222V184.9z"/>
	<path class="st3" d="M261.2,184.9V220c0,2.6,0.1,5.5,0.2,7.5h-4.7l-0.2-5h-0.1c-1.6,3.2-5.2,5.7-9.9,5.7c-7,0-12.4-5.9-12.4-14.8
		c-0.1-9.7,5.9-15.6,13-15.6c4.4,0,7.4,2.1,8.8,4.4h0.1v-17.3H261.2z M255.9,210.3c0-0.7-0.1-1.6-0.2-2.2c-0.8-3.4-3.7-6.1-7.6-6.1
		c-5.5,0-8.7,4.8-8.7,11.2c0,5.9,2.9,10.7,8.6,10.7c3.5,0,6.8-2.3,7.7-6.3c0.2-0.7,0.2-1.4,0.2-2.3V210.3z"/>
	<path class="st3" d="M282.1,221.2c2.3,1.4,5.8,2.6,9.4,2.6c5.3,0,8.5-2.8,8.5-6.9c0-3.8-2.2-5.9-7.6-8c-6.6-2.3-10.7-5.8-10.7-11.5
		c0-6.3,5.2-11,13.1-11c4.1,0,7.1,1,8.9,2l-1.4,4.3c-1.3-0.7-4-1.9-7.7-1.9c-5.5,0-7.6,3.3-7.6,6.1c0,3.8,2.5,5.6,8,7.8
		c6.8,2.6,10.3,5.9,10.3,11.9c0,6.2-4.6,11.6-14.2,11.6c-3.9,0-8.2-1.1-10.3-2.6L282.1,221.2z"/>
	<path class="st3" d="M315.6,214c0.1,7.1,4.7,10.1,10,10.1c3.8,0,6.1-0.7,8-1.5l0.9,3.8c-1.9,0.8-5,1.8-9.7,1.8
		c-8.9,0-14.3-5.9-14.3-14.6s5.2-15.7,13.6-15.7c9.5,0,12,8.3,12,13.7c0,1.1-0.1,1.9-0.2,2.5H315.6z M331,210.2
		c0.1-3.4-1.4-8.6-7.3-8.6c-5.3,0-7.7,4.9-8.1,8.6H331z"/>
	<path class="st3" d="M342.7,207.6c0-3.4-0.1-6.4-0.2-9.1h4.6l0.2,5.7h0.2c1.3-3.9,4.5-6.4,8-6.4c0.6,0,1,0.1,1.5,0.2v5
		c-0.5-0.1-1.1-0.2-1.8-0.2c-3.7,0-6.4,2.8-7.1,6.8c-0.1,0.7-0.2,1.6-0.2,2.5v15.5h-5.2V207.6z"/>
	<path class="st3" d="M365.8,198.5l5.7,16.3c1,2.6,1.7,5,2.3,7.4h0.2c0.7-2.4,1.5-4.8,2.5-7.4l5.6-16.3h5.5l-11.4,29h-5l-11-29
		H365.8z"/>
	<path class="st3" d="M398.5,190.3c0.1,1.8-1.3,3.2-3.4,3.2c-1.9,0-3.2-1.4-3.2-3.2c0-1.9,1.4-3.3,3.3-3.3
		C397.3,187,398.5,188.5,398.5,190.3z M392.7,227.5v-29h5.3v29H392.7z"/>
	<path class="st3" d="M427.4,226.5c-1.4,0.7-4.4,1.7-8.3,1.7c-8.8,0-14.5-5.9-14.5-14.8c0-8.9,6.1-15.4,15.6-15.4
		c3.1,0,5.9,0.8,7.3,1.5l-1.2,4.1c-1.3-0.7-3.2-1.4-6.1-1.4c-6.7,0-10.3,4.9-10.3,11c0,6.7,4.3,10.9,10.1,10.9c3,0,5-0.8,6.5-1.4
		L427.4,226.5z"/>
	<path class="st3" d="M436.2,214c0.1,7.1,4.7,10.1,10,10.1c3.8,0,6.1-0.7,8-1.5l0.9,3.8c-1.9,0.8-5,1.8-9.7,1.8
		c-8.9,0-14.3-5.9-14.3-14.6s5.2-15.7,13.6-15.7c9.5,0,12,8.3,12,13.7c0,1.1-0.1,1.9-0.2,2.5H436.2z M451.6,210.2
		c0.1-3.4-1.4-8.6-7.3-8.6c-5.3,0-7.7,4.9-8.1,8.6H451.6z"/>
	<path class="st3" d="M462.6,222.1c1.6,1,4.3,2.1,7,2.1c3.8,0,5.6-1.9,5.6-4.3c0-2.5-1.5-3.9-5.4-5.3c-5.2-1.9-7.7-4.7-7.7-8.2
		c0-4.7,3.8-8.5,10-8.5c2.9,0,5.5,0.8,7.1,1.8l-1.3,3.8c-1.1-0.7-3.2-1.7-5.9-1.7c-3.1,0-4.9,1.8-4.9,4c0,2.4,1.7,3.5,5.5,4.9
		c5,1.9,7.6,4.4,7.6,8.8c0,5.1-4,8.7-10.9,8.7c-3.2,0-6.1-0.8-8.2-2L462.6,222.1z"/>
	<path class="st3" d="M228.9,286.8l-4.2,12.7h-5.4l13.7-40.4h6.3l13.8,40.4h-5.6l-4.3-12.7H228.9z M242.2,282.7l-4-11.6
		c-0.9-2.6-1.5-5-2.1-7.4H236c-0.6,2.4-1.3,4.9-2,7.3l-4,11.7H242.2z"/>
	<path class="st3" d="M258.7,280c0-3.7-0.1-6.7-0.2-9.5h4.7l0.2,5h0.1c2.2-3.5,5.6-5.6,10.3-5.6c7,0,12.3,5.9,12.3,14.8
		c0,10.4-6.4,15.6-13.2,15.6c-3.8,0-7.2-1.7-8.9-4.6H264v15.8h-5.2V280z M264,287.7c0,0.8,0.1,1.5,0.2,2.2c1,3.7,4.1,6.2,7.9,6.2
		c5.6,0,8.8-4.6,8.8-11.2c0-5.8-3.1-10.8-8.6-10.8c-3.6,0-7,2.6-8,6.5c-0.2,0.7-0.4,1.4-0.4,2.2V287.7z"/>
	<path class="st3" d="M292.9,280c0-3.7-0.1-6.7-0.2-9.5h4.7l0.2,5h0.1c2.2-3.5,5.6-5.6,10.3-5.6c7,0,12.3,5.9,12.3,14.8
		c0,10.4-6.4,15.6-13.2,15.6c-3.8,0-7.2-1.7-8.9-4.6h-0.1v15.8h-5.2V280z M298.1,287.7c0,0.8,0.1,1.5,0.2,2.2c1,3.7,4.1,6.2,7.9,6.2
		c5.6,0,8.8-4.6,8.8-11.2c0-5.8-3.1-10.8-8.6-10.8c-3.6,0-7,2.6-8,6.5c-0.2,0.7-0.4,1.4-0.4,2.2V287.7z"/>
	<path class="st3" d="M327,256.9h5.3v42.6H327V256.9z"/>
	<path class="st3" d="M347.1,262.3c0.1,1.8-1.3,3.2-3.4,3.2c-1.9,0-3.2-1.4-3.2-3.2c0-1.9,1.4-3.3,3.3-3.3
		C345.8,259,347.1,260.5,347.1,262.3z M341.2,299.5v-29h5.3v29H341.2z"/>
	<path class="st3" d="M375.9,298.5c-1.4,0.7-4.4,1.7-8.3,1.7c-8.8,0-14.5-5.9-14.5-14.8c0-8.9,6.1-15.4,15.6-15.4
		c3.1,0,5.9,0.8,7.3,1.5l-1.2,4.1c-1.3-0.7-3.2-1.4-6.1-1.4c-6.7,0-10.3,4.9-10.3,11c0,6.7,4.3,10.9,10.1,10.9c3,0,5-0.8,6.5-1.4
		L375.9,298.5z"/>
	<path class="st3" d="M398.2,299.5l-0.4-3.7h-0.2c-1.6,2.3-4.7,4.3-8.9,4.3c-5.9,0-8.9-4.1-8.9-8.3c0-7,6.2-10.9,17.5-10.8v-0.6
		c0-2.4-0.7-6.7-6.6-6.7c-2.7,0-5.5,0.8-7.6,2.2l-1.2-3.5c2.4-1.6,5.9-2.6,9.5-2.6c8.9,0,11,6.1,11,11.9v10.9c0,2.5,0.1,5,0.5,7
		H398.2z M397.4,284.7c-5.8-0.1-12.3,0.9-12.3,6.5c0,3.4,2.3,5,5,5c3.8,0,6.2-2.4,7-4.9c0.2-0.5,0.3-1.1,0.3-1.7V284.7z"/>
	<path class="st3" d="M417.1,262.2v8.3h7.6v4h-7.6v15.7c0,3.6,1,5.6,4,5.6c1.4,0,2.4-0.2,3.1-0.4l0.2,4c-1,0.4-2.6,0.7-4.7,0.7
		c-2.5,0-4.4-0.8-5.7-2.2c-1.5-1.6-2-4.1-2-7.6v-15.8h-4.5v-4h4.5v-7L417.1,262.2z"/>
	<path class="st3" d="M436.5,262.3c0.1,1.8-1.3,3.2-3.4,3.2c-1.9,0-3.2-1.4-3.2-3.2c0-1.9,1.4-3.3,3.3-3.3
		C435.3,259,436.5,260.5,436.5,262.3z M430.6,299.5v-29h5.3v29H430.6z"/>
	<path class="st3" d="M471,284.8c0,10.7-7.4,15.4-14.5,15.4c-7.9,0-13.9-5.8-13.9-14.9c0-9.7,6.4-15.4,14.4-15.4
		C465.3,269.8,471,275.9,471,284.8z M447.9,285.1c0,6.4,3.7,11.2,8.8,11.2c5,0,8.8-4.7,8.8-11.3c0-4.9-2.5-11.2-8.7-11.2
		C450.6,273.8,447.9,279.6,447.9,285.1z"/>
	<path class="st3" d="M477.6,278.4c0-3-0.1-5.5-0.2-7.9h4.7l0.3,4.8h0.1c1.4-2.8,4.8-5.5,9.6-5.5c4,0,10.3,2.4,10.3,12.4v17.3h-5.3
		v-16.7c0-4.7-1.7-8.6-6.7-8.6c-3.5,0-6.2,2.5-7.1,5.4c-0.2,0.7-0.4,1.6-0.4,2.5v17.5h-5.3V278.4z"/>
</g>
</svg>
